<svg width="290" height="115" viewBox="0 0 290 115" fill="none" xmlns="http://www.w3.org/2000/svg">
<g clip-path="url(#clip0_459_2558)">
<path d="M74.7525 55.3345H37.8657C37.4892 55.8616 37.6398 56.3971 37.6398 56.9074C37.6314 72.3934 37.6314 87.8793 37.6398 103.365C37.6398 107.046 38.9282 108.661 42.5508 109.381C44.6842 109.807 46.8343 110.117 48.9844 110.46C49.6956 110.577 50.3565 110.753 50.2812 111.64C50.1975 112.635 49.386 112.635 48.6665 112.627C46.3323 112.602 43.9981 112.568 41.664 112.485C37.5728 112.334 33.4734 111.924 29.3906 112.024C23.5426 112.167 17.6946 112.501 11.8382 112.568C8.74269 112.602 5.64717 112.602 2.55165 112.602C2.17516 112.602 1.78195 112.593 1.41383 112.518C0.669236 112.367 0.00830078 112.033 0.00830078 111.163C0.00830078 110.259 0.677602 109.966 1.43893 109.874C3.52213 109.632 5.62207 109.766 7.70527 109.448C12.4071 108.736 13.1266 108.042 13.4947 103.349C13.5784 102.261 13.5784 101.157 13.5784 100.061C13.5784 70.5695 13.5784 41.07 13.5784 11.5789C13.5784 6.02374 12.2063 4.54291 6.70968 4.1748C5.0448 4.06603 3.37991 4.0242 1.71502 3.92381C0.953689 3.87361 0.108696 3.81505 0.108696 2.74416C0.108696 1.63145 1.02062 1.63145 1.74848 1.63145C6.08221 1.59799 10.4159 1.61472 14.758 1.61472C25.7178 1.61472 36.6777 1.61472 47.6375 1.61472C48.1562 1.61472 48.7 1.61472 49.1936 1.74858C50.0386 1.98283 50.4067 2.62704 50.3147 3.49713C50.231 4.34212 49.7374 4.71024 48.884 4.7688C46.7005 4.91103 44.5085 5.02816 42.3416 5.29588C39.313 5.67236 38.2923 6.74324 37.9159 9.7551C37.7736 10.8845 37.6649 12.0307 37.6649 13.1769C37.6481 25.5172 37.6481 37.8574 37.6481 50.1976C37.6481 50.5239 37.6481 50.8502 37.6481 51.3522C50.0386 51.7956 62.337 51.8542 74.7693 51.1096V49.5785C74.7693 38.1921 74.7693 26.8056 74.7693 15.4191C74.7693 13.361 74.602 11.328 73.9327 9.36188C72.8199 6.09067 70.6614 4.52618 67.1894 4.47598C65.809 4.45925 64.4202 4.43415 63.09 4.0242C62.4876 3.84015 61.8685 3.56406 61.9689 2.76926C62.0609 2.0414 62.6215 1.74858 63.274 1.65655C63.7425 1.58962 64.2278 1.60635 64.6963 1.60635C80.1321 1.60635 95.5678 1.60635 111.012 1.62308C111.104 1.62308 111.204 1.62308 111.296 1.62308C112.016 1.62308 112.919 1.54779 113.011 2.46808C113.104 3.38837 112.158 3.4553 111.497 3.65609C109.707 4.19989 107.833 4.22499 105.992 4.44252C100.546 5.08672 99.3075 6.29983 98.8641 11.7714C98.7303 13.4279 98.7219 15.1011 98.7219 16.7744C98.7135 42.9776 98.7135 69.1891 98.7219 95.3922C98.7219 98.5882 98.8139 101.767 99.592 104.896C100.161 107.197 101.558 108.619 103.75 109.381C105.892 110.125 108.117 110.309 110.343 110.518C110.87 110.569 111.38 110.61 111.874 110.82C112.652 111.146 113.196 111.681 113.062 112.56C112.919 113.522 112.091 113.505 111.38 113.447C100.404 112.526 89.3935 112.844 78.4002 112.593C74.4012 112.501 70.4021 112.66 66.403 112.677C65.4074 112.677 64.4035 112.618 63.4163 112.459C62.772 112.359 62.0191 112.125 61.9856 111.297C61.9522 110.468 62.6717 110.192 63.3159 110.033C64.0521 109.849 64.8134 109.749 65.5664 109.699C66.8548 109.607 68.1265 109.473 69.3814 109.171C73.7319 108.117 74.786 106.812 74.786 102.361C74.786 93.2588 74.786 84.1563 74.786 75.0622C74.786 69.0552 74.786 63.0566 74.786 57.0496V55.368L74.7525 55.3345ZM21.1666 105.549L21.1415 105.206C23.7769 104.26 26.4039 103.307 29.0393 102.361C29.5998 102.161 30.2607 102.119 30.2273 101.215C30.1938 100.387 29.5496 100.395 29.056 100.211C26.4039 99.2324 23.7518 98.2786 21.0913 97.3165C23.7936 97.032 26.4457 97.0069 29.0978 97.0488C30.0683 97.0655 30.4197 96.7392 30.0934 95.7436H19.0918C18.6316 97.283 19.1085 98.0527 20.6312 98.4961C23.1912 99.2575 25.6844 100.261 28.5289 101.282C25.6175 102.345 23.0406 103.282 20.4555 104.219C18.732 104.846 18.6902 104.93 19.1838 106.762H30.085C30.4448 105.708 29.9512 105.524 29.1229 105.532C26.4792 105.557 23.8271 105.541 21.1833 105.541L21.1666 105.549ZM24.5884 57.3006C23.3335 57.2671 22.1203 57.4679 21.016 58.0787C19.4264 58.9655 18.6232 60.3208 18.6651 62.1614C18.6985 63.9351 19.4515 65.3239 21.0495 66.0685C23.459 67.1979 25.9437 67.2397 28.303 65.9179C31.2647 64.2613 31.2898 60.0364 28.4034 58.246C27.2405 57.5265 25.9437 57.2839 24.5968 57.3006H24.5884ZM24.923 71.9165C24.7808 71.6069 24.6553 71.3643 24.5466 71.1217C24.0028 69.8584 22.9737 69.3648 21.6769 69.4401C20.3383 69.5237 19.4599 70.3018 19.1503 71.5902C18.7571 73.2133 18.9746 74.8614 18.983 76.4594H30.085C30.3695 75.5474 30.085 75.2212 29.2317 75.2379C27.8596 75.2714 26.4875 75.2463 25.1908 75.2463C24.6972 73.8826 25.1238 73.138 26.3119 72.6611C27.3242 72.2595 28.2445 71.6404 29.2484 71.2137C30.1101 70.8456 30.4364 70.3353 30.0348 69.3397C28.3365 70.193 26.6549 71.0464 24.923 71.9165ZM29.0225 78.9776C28.2863 79.3625 28.4202 79.7138 28.7799 80.2493C30.1436 82.2823 29.5245 84.2818 27.2656 85.2189C25.5673 85.9216 23.8103 85.9049 22.0869 85.3276C19.7443 84.5496 18.9412 82.4162 20.2547 80.3329C20.6981 79.6302 20.5391 79.3457 19.9619 79.0027C18.0292 80.9019 18.23 84.2567 20.3551 85.9216C22.5638 87.6534 26.6047 87.6451 28.7883 85.8965C30.9551 84.1731 31.0806 80.9019 29.0142 78.9776H29.0225ZM19.0834 91.619H30.0683C30.3444 90.7741 30.1687 90.3808 29.2819 90.3892C26.1445 90.4143 23.0072 90.4143 19.8782 90.3892C18.9914 90.3892 18.8157 90.7824 19.0918 91.619H19.0834Z" fill="white"/>
<path d="M160.172 104.311C158.072 106.452 155.981 108.393 153.621 110.016C147.815 113.99 141.448 115.664 134.504 114.317C124.791 112.426 119.888 106.779 119.345 97.0737C119.052 91.9285 119.177 86.7832 119.161 81.638C119.127 71.3893 119.161 61.149 119.144 50.9003C119.144 46.3239 118.684 45.8554 114.149 45.571C112.869 45.4873 111.572 45.4371 110.309 45.228C109.581 45.1025 108.477 45.0606 108.586 43.9312C108.678 42.9272 109.64 42.7766 110.46 42.7766C112.702 42.7766 114.936 42.8268 117.178 42.9021C121.637 43.0527 126.088 43.4125 130.564 42.9523C133.927 42.6093 137.307 42.7766 140.62 42.7766C140.997 43.2368 140.871 43.6802 140.871 44.0901C140.821 56.1459 141.13 68.2017 140.486 80.2492C140.143 86.6996 140.361 93.0998 141.097 99.5C141.248 100.822 141.515 102.135 141.942 103.399C143.331 107.548 147.004 109.556 151.212 108.335C155.261 107.155 157.955 104.302 159.796 100.663C160.666 98.9478 160.507 96.9231 160.515 95.0407C160.557 81.6045 160.548 68.1683 160.523 54.732C160.523 52.7325 160.373 50.733 160.239 48.7334C160.088 46.4745 158.917 45.3786 156.65 45.3367C155.169 45.3116 153.697 45.3535 152.216 45.32C151.697 45.3116 151.178 45.2112 150.676 45.069C150.25 44.9519 149.94 44.6674 149.948 44.1403C149.957 43.5631 150.383 43.4376 150.802 43.3706C151.555 43.2452 152.308 43.0862 153.069 43.0778C162.356 42.9607 171.651 42.8687 180.945 42.7766C181.088 42.7766 181.23 42.8185 181.389 42.8352C181.782 43.3957 181.59 44.0316 181.598 44.6256C181.64 63.7843 181.673 82.9347 181.707 102.093C181.707 104.57 182.502 105.381 184.936 105.716C187.362 106.051 189.789 105.909 192.215 105.959C192.692 105.967 193.177 105.95 193.637 106.059C194.147 106.185 194.591 106.419 194.633 107.097C194.666 107.757 194.449 108.201 193.838 108.443C193.068 108.745 192.273 108.787 191.453 108.828C184.752 109.146 178.026 109.213 171.408 110.535C168.53 111.112 165.853 112.192 163.385 113.781C162.983 114.041 162.59 114.317 162.155 114.501C161 114.986 160.548 114.718 160.523 113.463C160.482 111.129 160.523 108.795 160.498 106.461C160.498 105.808 160.599 105.13 160.18 104.319L160.172 104.311Z" fill="white"/>
<path d="M217.348 49.1518C218.251 48.1981 219.104 47.1858 220.067 46.2906C225.128 41.5971 231.244 40.5429 237.862 41.1704C251.959 42.5174 261.906 53.8453 264.307 66.972C265.897 75.6897 265.587 84.3404 261.714 92.4306C255.673 105.039 245.182 111.832 231.645 114.241C225.546 115.329 219.841 113.647 214.185 111.69C213.608 111.489 213.491 111.179 213.374 110.577C211.75 102.696 212.311 94.7313 212.353 86.7917C212.378 82.6922 212.495 78.6011 212.587 74.5016C212.629 72.7782 212.16 71.3559 210.68 70.285C209.299 69.2895 209.165 67.7082 209.174 66.1521C209.174 60.714 209.5 55.2927 209.902 49.8797C210.797 37.6147 211.257 25.3331 210.839 13.043C210.713 9.35349 210.537 5.62213 209.416 1.90751L216.979 0V49.0514L217.373 49.1518H217.348ZM217.147 79.9732C217.264 85.2774 216.896 91.7613 217.431 98.2284C217.699 101.408 217.925 104.595 219.163 107.59C220.125 109.916 221.857 111.363 224.3 111.916C229.571 113.112 234.473 110.953 237.209 106.26C238.69 103.717 239.518 100.931 240.012 98.0694C242.053 86.206 242.22 74.2925 240.807 62.3538C240.296 58.0452 239.267 53.8369 236.983 50.0387C232.691 42.8939 223.898 44.8683 220.594 49.1351C218.234 52.1888 217.255 55.6524 217.18 59.3671C217.063 65.8425 217.147 72.318 217.147 79.9648V79.9732Z" fill="white"/>
<path d="M211.332 102.286C210.328 96.0868 210.261 89.8038 210.002 83.5374C209.96 82.592 210.152 81.3371 208.856 81.312C207.5 81.2869 207.718 82.5586 207.709 83.4872C207.651 89.3436 207.45 95.2084 207.96 101.056C208.027 101.843 207.969 102.646 207.885 103.441C207.233 97.6262 205.643 91.9706 205.107 86.1393C204.982 84.7505 204.706 83.3617 202.924 82.8598C202.296 84.6836 202.439 86.5828 202.472 88.4401C202.573 94.012 203.058 99.5672 203.476 105.114C203.51 105.574 203.677 106.051 203.342 106.729C202.573 104.277 202.179 101.918 201.753 99.5839C200.581 93.167 199.77 86.6999 198.983 80.2328C198.632 77.3297 199.343 74.8449 201.761 72.8621C204.355 70.7287 205.091 67.6081 205.409 64.4289C206.12 57.2506 205.894 50.0556 205.559 42.869C205.233 35.7828 204.739 28.7049 204.262 21.627C204.087 18.9247 203.752 16.2224 203.518 13.5201C203.409 12.2233 203.242 10.9015 203.995 9.5796C202.648 9.5796 202.573 10.4832 202.589 11.2278C202.631 13.0851 202.765 14.934 202.924 16.783C204.179 30.6375 205.174 44.5004 204.898 58.4302C204.848 61.0489 204.798 63.6675 204.262 66.2443C203.735 68.8379 202.715 71.0968 200.581 72.8202C198.423 74.5688 197.787 77.0536 198.088 79.6471C199.276 89.9042 200.473 100.161 203.3 110.142C203.351 110.318 203.351 110.51 203.384 110.778C201.594 111.481 200.012 112.535 198.414 113.556C197.143 114.367 196.323 113.982 196.097 112.518C195.955 111.581 195.972 110.619 195.972 109.665C195.972 77.6978 195.972 45.7303 195.963 13.7544C195.963 12.5664 195.963 11.3783 195.721 10.1987C195.269 7.99001 194.499 7.20358 192.332 6.70997C190.266 6.23309 188.141 6.57611 186.074 6.23309C185.238 6.09923 183.958 6.29165 184.024 5.01998C184.091 3.81524 185.321 3.95746 186.183 3.95746C193.294 3.95746 200.364 3.49732 207.366 2.19218C208.245 2.02485 208.638 2.25911 208.856 3.16267C209.583 6.19126 209.768 9.28678 209.893 12.3739C210.353 23.8106 210.027 35.2306 209.199 46.6422C208.747 52.9085 208.395 59.1916 208.262 65.4747C208.211 67.8423 208.571 70.0259 210.755 71.5151C211.499 72.0254 211.683 72.929 211.683 73.8158C211.658 83.2948 211.198 92.7654 211.307 102.278L211.332 102.286Z" fill="white"/>
<path d="M278.781 113.957C272.28 113.949 267.294 108.937 267.302 102.445C267.319 95.635 272.297 90.724 279.166 90.7491C285.089 90.7742 289.992 96.0784 290 102.47C290.008 109.138 285.29 113.966 278.781 113.957Z" fill="white"/>
<path d="M203.693 84.374C204.974 92.8658 207.115 101.207 207.575 109.849C207.132 110.259 206.521 110.092 205.986 110.201C205.476 110.301 204.965 110.36 204.17 110.477C204.789 101.726 202.773 93.1084 203.693 84.374Z" fill="white"/>
<path d="M208.906 110.167C209.123 100.805 207.893 91.5772 208.872 82.3325C209.592 91.8282 209.466 101.416 211.993 110.878C210.889 110.627 209.935 110.401 208.906 110.167Z" fill="white"/>
<path d="M24.3625 65.3571C23.2916 65.3236 22.1203 65.173 21.0745 64.5121C19.1838 63.3157 19.1336 60.923 20.9741 59.6764C22.8231 58.4215 26.5042 58.4633 28.303 59.7768C29.9261 60.9564 29.926 63.207 28.2779 64.3615C27.1401 65.1563 25.8349 65.3487 24.3541 65.3571H24.3625Z" fill="white"/>
<path d="M19.8447 75.1707C19.9786 73.5477 19.418 71.9999 20.9407 71.0462C21.6351 70.6028 22.4466 70.6362 23.0908 71.1215C24.4713 72.1505 24.0613 73.6397 24.053 75.1456C22.6391 75.313 21.3005 75.246 19.8447 75.1707Z" fill="white"/>
</g>
<defs>
<clipPath id="clip0_459_2558">
<rect width="290" height="114.777" fill="white"/>
</clipPath>
</defs>
</svg>
